# Object Export From Tinkercad Server 2015

mtllib obj.mtl

o obj_0
v 15.998 		5 		-24.003
v 15.998 		-4.002 		-24.003
v 24.003 		-4.002 		-24.003
v 24.003 		5 		-24.003
v 24.003 		5 		-15.998
v 24.003 		-4.002 		-15.998
v 15.998 		-4.002 		-15.998
v 15.998 		5 		-15.998
v 15.998 		5 		-14.003
v 15.998 		-4.002 		-14.003
v 24.003 		-4.002 		-14.003
v 24.003 		5 		-14.003
v 24.003 		5 		-5.998
v 24.003 		-4.002 		-5.998
v 15.998 		-4.002 		-5.998
v 15.998 		5 		-5.998
v 15.998 		5 		-4.003
v 15.998 		-4.002 		-4.003
v 24.003 		-4.002 		-4.003
v 24.003 		5 		-4.003
v 24.003 		5 		4.002
v 24.003 		-4.002 		4.002
v 15.998 		-4.002 		4.002
v 15.998 		5 		4.002
v 15.998 		5 		5.998
v 15.998 		-4.002 		5.998
v 24.003 		-4.002 		5.998
v 24.003 		5 		5.998
v 24.003 		5 		14.003
v 24.003 		-4.002 		14.003
v 15.998 		-4.002 		14.003
v 15.998 		5 		14.003
v 15.998 		5 		15.998
v 15.998 		-4.002 		15.998
v 24.003 		-4.002 		15.998
v 24.003 		5 		15.998
v 24.003 		5 		24.003
v 24.003 		-4.002 		24.003
v 15.998 		-4.002 		24.003
v 15.998 		5 		24.003
v -26 		5 		26
v -26 		-5 		26
v 26 		-5 		26
v 26 		5 		26
v -26 		-5 		-26
v -26 		5 		-26
v 5.998 		5 		-4.003
v 14.003 		5 		-4.003
v 14.003 		5 		-5.998
v 5.998 		5 		-5.998
v 5.998 		5 		5.998
v 14.003 		5 		5.998
v 14.003 		5 		4.002
v 5.998 		5 		4.002
v 5.998 		5 		15.998
v 14.003 		5 		15.998
v 14.003 		5 		14.003
v 5.998 		5 		14.003
v 14.003 		5 		24.003
v 5.998 		5 		24.003
v 5.998 		5 		-14.003
v 5.998 		5 		-15.998
v 5.998 		5 		-24.003
v 4.002 		5 		-24.003
v 4.002 		5 		-15.998
v 4.002 		5 		-14.003
v 4.002 		5 		-5.998
v 4.002 		5 		-4.003
v 4.002 		5 		4.002
v 4.002 		5 		5.998
v 4.002 		5 		14.003
v 4.002 		5 		15.998
v 4.002 		5 		24.003
v 14.003 		5 		-24.003
v 14.003 		5 		-15.998
v 14.003 		5 		-14.003
v 26 		5 		-26
v 26 		-5 		-26
v -24.003 		5 		-24.003
v -15.998 		5 		-24.003
v -24.003 		5 		-14.003
v -15.998 		5 		-14.003
v -15.998 		5 		-15.998
v -24.003 		5 		-15.998
v -24.003 		5 		-4.003
v -15.998 		5 		-4.003
v -15.998 		5 		-5.998
v -24.003 		5 		-5.998
v -24.003 		5 		5.998
v -15.998 		5 		5.998
v -15.998 		5 		4.002
v -24.003 		5 		4.002
v -24.003 		5 		15.998
v -15.998 		5 		15.998
v -15.998 		5 		14.003
v -24.003 		5 		14.003
v -15.998 		5 		24.003
v -24.003 		5 		24.003
v -14.003 		5 		-24.003
v -5.998 		5 		-24.003
v -14.003 		5 		-14.003
v -5.998 		5 		-14.003
v -5.998 		5 		-15.998
v -14.003 		5 		-15.998
v -14.003 		5 		-4.003
v -5.998 		5 		-4.003
v -5.998 		5 		-5.998
v -14.003 		5 		-5.998
v -15.998 		-4.002 		4.002
v -15.998 		-4.002 		-4.003
v -14.003 		5 		5.998
v -5.998 		5 		5.998
v -5.998 		5 		4.002
v -14.003 		5 		4.002
v -15.998 		-4.002 		14.003
v -15.998 		-4.002 		5.998
v -14.003 		5 		15.998
v -5.998 		5 		15.998
v -5.998 		5 		14.003
v -14.003 		5 		14.003
v -15.998 		-4.002 		24.003
v -15.998 		-4.002 		15.998
v -5.998 		5 		24.003
v -14.003 		5 		24.003
v -14.003 		-4.002 		-14.003
v -5.998 		-4.002 		-14.003
v -14.003 		-4.002 		-24.003
v -5.998 		-4.002 		-24.003
v -5.998 		-4.002 		-15.998
v -14.003 		-4.002 		-15.998
v -5.998 		-4.002 		-5.998
v -14.003 		-4.002 		-5.998
v -14.003 		-4.002 		-4.003
v -5.998 		-4.002 		-4.003
v -5.998 		-4.002 		4.002
v -14.003 		-4.002 		4.002
v -4.003 		5 		-24.003
v -14.003 		-4.002 		5.998
v -5.998 		-4.002 		5.998
v -4.003 		5 		-14.003
v -4.003 		5 		-15.998
v -5.998 		-4.002 		14.003
v -14.003 		-4.002 		14.003
v -4.003 		5 		-4.003
v -4.003 		5 		-5.998
v -14.003 		-4.002 		15.998
v -5.998 		-4.002 		15.998
v -4.003 		5 		5.998
v -4.003 		5 		4.002
v -5.998 		-4.002 		24.003
v -14.003 		-4.002 		24.003
v -4.003 		5 		15.998
v -4.003 		5 		14.003
v -4.003 		5 		24.003
v -24.003 		-4.002 		-24.003
v -15.998 		-4.002 		-24.003
v -15.998 		-4.002 		-15.998
v -24.003 		-4.002 		-15.998
v -24.003 		-4.002 		-14.003
v -15.998 		-4.002 		-14.003
v -15.998 		-4.002 		-5.998
v -24.003 		-4.002 		-5.998
v -24.003 		-4.002 		-4.003
v -24.003 		-4.002 		4.002
v -24.003 		-4.002 		5.998
v -4.003 		-4.002 		-24.003
v 4.002 		-4.002 		-24.003
v -24.003 		-4.002 		14.003
v 4.002 		-4.002 		-15.998
v -4.003 		-4.002 		-15.998
v -24.003 		-4.002 		15.998
v -4.003 		-4.002 		-14.003
v 4.002 		-4.002 		-14.003
v -24.003 		-4.002 		24.003
v 4.002 		-4.002 		-5.998
v -4.003 		-4.002 		-5.998
v -4.003 		-4.002 		-4.003
v 4.002 		-4.002 		-4.003
v 4.002 		-4.002 		4.002
v -4.003 		-4.002 		4.002
v -4.003 		-4.002 		5.998
v 4.002 		-4.002 		5.998
v 4.002 		-4.002 		14.003
v -4.003 		-4.002 		14.003
v -4.003 		-4.002 		15.998
v 4.002 		-4.002 		15.998
v 4.002 		-4.002 		24.003
v -4.003 		-4.002 		24.003
v 5.998 		-4.002 		-14.003
v 14.003 		-4.002 		-14.003
v 5.998 		-4.002 		-24.003
v 14.003 		-4.002 		-24.003
v 14.003 		-4.002 		-15.998
v 5.998 		-4.002 		-15.998
v 14.003 		-4.002 		-5.998
v 5.998 		-4.002 		-5.998
v 5.998 		-4.002 		-4.003
v 14.003 		-4.002 		-4.003
v 14.003 		-4.002 		4.002
v 5.998 		-4.002 		4.002
v 5.998 		-4.002 		5.998
v 14.003 		-4.002 		5.998
v 14.003 		-4.002 		14.003
v 5.998 		-4.002 		14.003
v 5.998 		-4.002 		15.998
v 14.003 		-4.002 		15.998
v 14.003 		-4.002 		24.003
v 5.998 		-4.002 		24.003
# 208 vertices

g group_0_16448250

usemtl color_16448250
s 0

f 1 	2 	3
f 1 	3 	4
f 5 	6 	7
f 5 	7 	8
f 9 	10 	11
f 9 	11 	12
f 13 	14 	15
f 13 	15 	16
f 17 	18 	19
f 17 	19 	20
f 21 	22 	23
f 21 	23 	24
f 25 	26 	27
f 25 	27 	28
f 29 	30 	31
f 29 	31 	32
f 33 	34 	35
f 33 	35 	36
f 37 	38 	39
f 37 	39 	40
f 7 	6 	3
f 7 	3 	2
f 15 	14 	11
f 15 	11 	10
f 23 	22 	19
f 23 	19 	18
f 31 	30 	27
f 31 	27 	26
f 39 	38 	35
f 39 	35 	34
f 2 	1 	8
f 2 	8 	7
f 10 	9 	16
f 10 	16 	15
f 18 	17 	24
f 18 	24 	23
f 26 	25 	32
f 26 	32 	31
f 34 	33 	40
f 34 	40 	39
f 6 	5 	4
f 6 	4 	3
f 14 	13 	12
f 14 	12 	11
f 22 	21 	20
f 22 	20 	19
f 30 	29 	28
f 30 	28 	27
f 38 	37 	36
f 38 	36 	35
f 78 	45 	46
f 47 	48 	49
f 47 	49 	50
f 51 	52 	53
f 51 	53 	54
f 55 	56 	57
f 55 	57 	58
f 44 	59 	60
f 60 	73 	44
f 71 	72 	55
f 58 	51 	70
f 68 	69 	54
f 47 	50 	67
f 66 	67 	50
f 65 	66 	61
f 64 	65 	62
f 62 	63 	64
f 63 	77 	64
f 50 	61 	66
f 61 	62 	65
f 67 	68 	47
f 54 	47 	68
f 51 	54 	69
f 69 	70 	51
f 70 	71 	58
f 55 	58 	71
f 60 	55 	72
f 72 	73 	60
f 46 	64 	77
f 9 	12 	5
f 9 	5 	8
f 17 	20 	13
f 17 	13 	16
f 25 	28 	21
f 25 	21 	24
f 33 	36 	29
f 33 	29 	32
f 37 	40 	44
f 57 	56 	33
f 17 	16 	49
f 76 	49 	16
f 16 	9 	76
f 75 	76 	9
f 9 	8 	75
f 74 	75 	8
f 8 	1 	74
f 1 	77 	74
f 4 	77 	1
f 32 	25 	52
f 49 	48 	17
f 24 	17 	48
f 48 	53 	24
f 25 	24 	53
f 53 	52 	25
f 52 	57 	32
f 33 	32 	57
f 40 	33 	56
f 56 	59 	40
f 44 	40 	59
f 77 	4 	5
f 77 	5 	12
f 77 	12 	13
f 77 	13 	20
f 77 	20 	21
f 28 	44 	21
f 29 	44 	28
f 36 	44 	29
f 37 	44 	36
f 77 	21 	44
f 45 	78 	42
f 43 	42 	78
f 41 	42 	44
f 43 	44 	42
f 44 	43 	78
f 44 	78 	77
f 46 	45 	42
f 46 	42 	41
f 79 	80 	46
f 81 	82 	83
f 81 	83 	84
f 85 	86 	87
f 85 	87 	88
f 89 	90 	91
f 89 	91 	92
f 93 	94 	95
f 93 	95 	96
f 44 	73 	41
f 41 	98 	93
f 41 	93 	96
f 41 	96 	89
f 41 	89 	92
f 85 	46 	92
f 88 	46 	85
f 81 	46 	88
f 84 	46 	81
f 79 	46 	84
f 41 	92 	46
f 99 	100 	46
f 101 	102 	103
f 101 	103 	104
f 105 	106 	107
f 105 	107 	108
f 109 	91 	86
f 109 	86 	110
f 111 	112 	113
f 111 	113 	114
f 115 	95 	90
f 115 	90 	116
f 117 	118 	119
f 117 	119 	120
f 121 	97 	94
f 121 	94 	122
f 124 	41 	123
f 101 	125 	126
f 101 	126 	102
f 99 	127 	128
f 99 	128 	100
f 103 	129 	130
f 103 	130 	104
f 107 	131 	132
f 107 	132 	108
f 105 	133 	134
f 105 	134 	106
f 114 	105 	86
f 87 	86 	105
f 105 	108 	87
f 82 	87 	108
f 83 	82 	101
f 101 	104 	83
f 80 	83 	104
f 104 	99 	80
f 99 	46 	80
f 108 	101 	82
f 86 	91 	114
f 111 	114 	91
f 91 	90 	111
f 120 	111 	90
f 90 	95 	120
f 117 	120 	95
f 95 	94 	117
f 124 	117 	94
f 94 	97 	124
f 97 	41 	124
f 98 	41 	97
f 113 	135 	136
f 113 	136 	114
f 111 	138 	139
f 111 	139 	112
f 140 	66 	65
f 140 	65 	141
f 119 	142 	143
f 119 	143 	120
f 144 	68 	67
f 144 	67 	145
f 117 	146 	147
f 117 	147 	118
f 148 	70 	69
f 148 	69 	149
f 123 	150 	151
f 123 	151 	124
f 152 	72 	71
f 152 	71 	153
f 132 	131 	126
f 132 	126 	125
f 154 	41 	73
f 130 	129 	128
f 130 	128 	127
f 136 	135 	134
f 136 	134 	133
f 143 	142 	139
f 143 	139 	138
f 151 	150 	147
f 151 	147 	146
f 119 	118 	152
f 153 	148 	112
f 106 	113 	149
f 145 	140 	102
f 103 	102 	140
f 140 	141 	103
f 100 	103 	141
f 141 	137 	100
f 137 	46 	100
f 64 	46 	137
f 144 	145 	107
f 102 	107 	145
f 107 	106 	144
f 149 	144 	106
f 148 	149 	113
f 113 	112 	148
f 112 	119 	153
f 152 	153 	119
f 154 	152 	118
f 118 	123 	154
f 123 	41 	154
f 125 	101 	108
f 125 	108 	132
f 74 	77 	63
f 127 	99 	104
f 127 	104 	130
f 61 	76 	75
f 61 	75 	62
f 133 	105 	114
f 133 	114 	136
f 138 	111 	120
f 138 	120 	143
f 146 	117 	124
f 146 	124 	151
f 131 	107 	102
f 131 	102 	126
f 77 	78 	46
f 129 	103 	100
f 129 	100 	128
f 135 	113 	106
f 135 	106 	134
f 79 	155 	156
f 79 	156 	80
f 83 	157 	158
f 83 	158 	84
f 81 	159 	160
f 81 	160 	82
f 87 	161 	162
f 87 	162 	88
f 85 	163 	110
f 85 	110 	86
f 142 	119 	112
f 142 	112 	139
f 91 	109 	164
f 91 	164 	92
f 150 	123 	118
f 150 	118 	147
f 89 	165 	116
f 89 	116 	90
f 137 	166 	167
f 137 	167 	64
f 95 	115 	168
f 95 	168 	96
f 65 	169 	170
f 65 	170 	141
f 93 	171 	122
f 93 	122 	94
f 140 	172 	173
f 140 	173 	66
f 97 	121 	174
f 97 	174 	98
f 67 	175 	176
f 67 	176 	145
f 158 	157 	156
f 158 	156 	155
f 144 	177 	178
f 144 	178 	68
f 162 	161 	160
f 162 	160 	159
f 69 	179 	180
f 69 	180 	149
f 164 	109 	110
f 164 	110 	163
f 148 	181 	182
f 148 	182 	70
f 168 	115 	116
f 168 	116 	165
f 174 	121 	122
f 174 	122 	171
f 71 	183 	184
f 71 	184 	153
f 155 	79 	84
f 155 	84 	158
f 152 	185 	186
f 152 	186 	72
f 159 	81 	88
f 159 	88 	162
f 73 	187 	188
f 73 	188 	154
f 163 	85 	92
f 163 	92 	164
f 170 	169 	167
f 170 	167 	166
f 165 	89 	96
f 165 	96 	168
f 176 	175 	173
f 176 	173 	172
f 171 	93 	98
f 171 	98 	174
f 157 	83 	80
f 157 	80 	156
f 180 	179 	178
f 180 	178 	177
f 161 	87 	82
f 161 	82 	160
f 184 	183 	182
f 184 	182 	181
f 188 	187 	186
f 188 	186 	185
f 166 	137 	141
f 166 	141 	170
f 172 	140 	145
f 172 	145 	176
f 187 	73 	72
f 187 	72 	186
f 177 	144 	149
f 177 	149 	180
f 61 	189 	190
f 61 	190 	76
f 181 	148 	153
f 181 	153 	184
f 63 	191 	192
f 63 	192 	74
f 185 	152 	154
f 185 	154 	188
f 75 	193 	194
f 75 	194 	62
f 169 	65 	64
f 169 	64 	167
f 49 	195 	196
f 49 	196 	50
f 175 	67 	66
f 175 	66 	173
f 47 	197 	198
f 47 	198 	48
f 179 	69 	68
f 179 	68 	178
f 53 	199 	200
f 53 	200 	54
f 183 	71 	70
f 183 	70 	182
f 51 	201 	202
f 51 	202 	52
f 57 	203 	204
f 57 	204 	58
f 55 	205 	206
f 55 	206 	56
f 59 	207 	208
f 59 	208 	60
f 196 	195 	190
f 196 	190 	189
f 194 	193 	192
f 194 	192 	191
f 200 	199 	198
f 200 	198 	197
f 204 	203 	202
f 204 	202 	201
f 208 	207 	206
f 208 	206 	205
f 189 	61 	50
f 189 	50 	196
f 191 	63 	62
f 191 	62 	194
f 197 	47 	54
f 197 	54 	200
f 201 	51 	58
f 201 	58 	204
f 205 	55 	60
f 205 	60 	208
f 195 	49 	76
f 195 	76 	190
f 193 	75 	74
f 193 	74 	192
f 199 	53 	48
f 199 	48 	198
f 203 	57 	52
f 203 	52 	202
f 207 	59 	56
f 207 	56 	206
# 412 faces

 #end of obj_0

