# Object Export From Tinkercad Server 2015

mtllib obj.mtl

o obj_0
v -55 		55 		23
v -55 		55 		3
v -55 		-55 		3
v -55 		-55 		23
v -51.003 		51.003 		3
v -51.003 		-51.003 		3
v 55 		-55 		3
v 51.003 		-51.003 		3
v 55 		55 		23
v -51.003 		51.003 		19.003
v 55 		55 		3
v 51.003 		51.003 		3
v 55 		-55 		23
v 51.003 		51.003 		19.003
v 51.003 		-51.003 		19.003
v -51.003 		-51.003 		19.003
# 16 vertices

g group_0_15277357

usemtl color_15277357
s 0

f 1 	2 	3
f 1 	3 	4
f 2 	5 	6
f 2 	6 	3
f 13 	9 	4
f 1 	4 	9
f 2 	12 	5
f 9 	2 	1
f 3 	7 	4
f 13 	4 	7
f 2 	11 	12
f 5 	14 	10
f 2 	9 	11
f 16 	15 	8
f 16 	8 	6
f 10 	14 	15
f 10 	15 	16
f 14 	5 	12
f 11 	7 	12
f 8 	12 	7
f 3 	6 	8
f 5 	10 	16
f 5 	16 	6
f 12 	8 	14
f 15 	14 	8
f 9 	7 	11
f 13 	7 	9
f 7 	3 	8
# 28 faces

 #end of obj_0

