# Object Export From Tinkercad Server 2015

mtllib obj.mtl

o obj_0
v -10.998 		-9.003 		5
v -29.003 		-9.003 		5
v -9.003 		-30.998 		5
v -55 		-55 		3
v -55 		-55 		-15
v -29.003 		9.003 		5
v -9.003 		-49.003 		5
v -55 		55 		-15
v -55 		55 		3
v -10.998 		9.003 		5
v -29.003 		29.003 		5
v -51 		-51 		3
v -10.998 		29.003 		5
v -51 		-51 		5
v -51 		51 		5
v -51 		51 		3
v -10.998 		10.998 		5
v -29.003 		10.998 		5
v -9.003 		-10.998 		5
v -9.003 		-29.003 		5
v -9.003 		9.003 		5
v -49.003 		-10.998 		-9.003
v -49.003 		-10.998 		5
v -29.003 		49.003 		5
v -49.003 		-29.003 		5
v -10.998 		49.003 		5
v -49.003 		-29.003 		-9.003
v -9.003 		-9.003 		5
v -30.998 		-29.003 		-9.003
v -30.998 		-29.003 		5
v -30.998 		-10.998 		5
v -10.998 		30.998 		5
v -29.003 		30.998 		5
v -30.998 		-10.998 		-9.003
v -49.003 		9.003 		5
v -49.003 		9.003 		-9.003
v -30.998 		9.003 		-9.003
v -30.998 		9.003 		5
v -30.998 		-9.003 		5
v -30.998 		-9.003 		-9.003
v -49.003 		-9.003 		-9.003
v -49.003 		-9.003 		5
v -9.003 		29.003 		5
v 30.998 		-30.998 		-9.003
v 49.003 		-30.998 		-9.003
v -9.003 		10.998 		5
v 10.998 		-30.998 		5
v 49.003 		-49.003 		-9.003
v 30.998 		-49.003 		-9.003
v 9.003 		10.998 		-9.003
v 9.003 		29.003 		-9.003
v 9.003 		10.998 		5
v 9.003 		29.003 		5
v -9.003 		49.003 		5
v -9.003 		30.998 		5
v 30.998 		-10.998 		-9.003
v 49.003 		-10.998 		-9.003
v 49.003 		-29.003 		-9.003
v 30.998 		-29.003 		-9.003
v 9.003 		49.003 		-9.003
v 9.003 		49.003 		5
v 9.003 		30.998 		5
v 9.003 		30.998 		-9.003
v 49.003 		-9.003 		-9.003
v 30.998 		-9.003 		-9.003
v 49.003 		-30.998 		5
v 29.003 		-30.998 		5
v 30.998 		49.003 		5
v 30.998 		49.003 		-9.003
v 49.003 		49.003 		-9.003
v 49.003 		49.003 		5
v 49.003 		30.998 		5
v 49.003 		30.998 		-9.003
v 30.998 		30.998 		-9.003
v 30.998 		30.998 		5
v 10.998 		9.003 		5
v 29.003 		9.003 		5
v -9.003 		-30.998 		-9.003
v -49.003 		-30.998 		5
v -9.003 		-49.003 		-9.003
v -30.998 		-30.998 		5
v 10.998 		29.003 		5
v 29.003 		29.003 		5
v -30.998 		-49.003 		5
v -49.003 		-49.003 		5
v 29.003 		10.998 		5
v 10.998 		10.998 		5
v 10.998 		-30.998 		-9.003
v 29.003 		-30.998 		-9.003
v 29.003 		-49.003 		-9.003
v 10.998 		-49.003 		-9.003
v -9.003 		-10.998 		-9.003
v -9.003 		-29.003 		-9.003
v 10.998 		49.003 		5
v 29.003 		49.003 		5
v 29.003 		30.998 		5
v 10.998 		30.998 		5
v -9.003 		9.003 		-9.003
v 10.998 		-10.998 		-9.003
v 29.003 		-10.998 		-9.003
v 29.003 		-29.003 		-9.003
v 10.998 		-29.003 		-9.003
v -9.003 		-9.003 		-9.003
v -9.003 		29.003 		-9.003
v -49.003 		29.003 		5
v -30.998 		29.003 		5
v 29.003 		-9.003 		-9.003
v -9.003 		10.998 		-9.003
v 10.998 		-9.003 		-9.003
v -30.998 		10.998 		5
v -49.003 		10.998 		5
v -49.003 		49.003 		5
v -30.998 		49.003 		5
v -9.003 		49.003 		-9.003
v -29.003 		-30.998 		5
v -29.003 		-30.998 		-9.003
v -10.998 		-30.998 		-9.003
v -10.998 		-30.998 		5
v -10.998 		-49.003 		5
v -10.998 		-49.003 		-9.003
v -29.003 		-49.003 		-9.003
v -9.003 		30.998 		-9.003
v -29.003 		-49.003 		5
v 30.998 		-10.998 		5
v 49.003 		-10.998 		5
v 49.003 		-29.003 		5
v -29.003 		-10.998 		5
v -29.003 		-10.998 		-9.003
v -10.998 		-10.998 		-9.003
v -10.998 		-10.998 		5
v -10.998 		-29.003 		5
v -10.998 		-29.003 		-9.003
v -29.003 		-29.003 		-9.003
v -29.003 		-29.003 		5
v 49.003 		-9.003 		5
v 30.998 		-9.003 		5
v -29.003 		9.003 		-9.003
v -10.998 		9.003 		-9.003
v 9.003 		-30.998 		-9.003
v -10.998 		-9.003 		-9.003
v -29.003 		-9.003 		-9.003
v 9.003 		-49.003 		-9.003
v -29.003 		29.003 		-9.003
v -10.998 		29.003 		-9.003
v 10.998 		9.003 		-9.003
v 29.003 		9.003 		-9.003
v -10.998 		10.998 		-9.003
v -29.003 		10.998 		-9.003
v -30.998 		30.998 		5
v -49.003 		30.998 		5
v 9.003 		-10.998 		-9.003
v 10.998 		29.003 		-9.003
v 29.003 		29.003 		-9.003
v 29.003 		10.998 		-9.003
v 10.998 		10.998 		-9.003
v 9.003 		-29.003 		-9.003
v -29.003 		49.003 		-9.003
v -10.998 		49.003 		-9.003
v -10.998 		30.998 		-9.003
v -29.003 		30.998 		-9.003
v 9.003 		-9.003 		-9.003
v 10.998 		49.003 		-9.003
v 29.003 		49.003 		-9.003
v 29.003 		-49.003 		5
v 10.998 		-49.003 		5
v 29.003 		30.998 		-9.003
v 10.998 		30.998 		-9.003
v -49.003 		29.003 		-9.003
v -30.998 		29.003 		-9.003
v -30.998 		10.998 		-9.003
v -49.003 		10.998 		-9.003
v 9.003 		9.003 		5
v -49.003 		49.003 		-9.003
v -30.998 		49.003 		-9.003
v -30.998 		30.998 		-9.003
v -49.003 		30.998 		-9.003
v 55 		55 		-15
v 55 		55 		3
v 29.003 		-10.998 		5
v -49.003 		-30.998 		-9.003
v -30.998 		-30.998 		-9.003
v 51 		51 		3
v -30.998 		-49.003 		-9.003
v -49.003 		-49.003 		-9.003
v 29.003 		-9.003 		5
v 51 		51 		5
v 9.003 		9.003 		-9.003
v 30.998 		9.003 		5
v 55 		-55 		3
v 49.003 		9.003 		5
v 51 		-51 		3
v 10.998 		-10.998 		5
v 30.998 		29.003 		5
v 49.003 		29.003 		5
v 51 		-51 		5
v 29.003 		-29.003 		5
v 10.998 		-29.003 		5
v 49.003 		10.998 		5
v 30.998 		10.998 		5
v 10.998 		-9.003 		5
v 30.998 		-30.998 		5
v 49.003 		-49.003 		5
v 30.998 		-49.003 		5
v 30.998 		-29.003 		5
v 30.998 		9.003 		-9.003
v 49.003 		9.003 		-9.003
v 30.998 		29.003 		-9.003
v 49.003 		29.003 		-9.003
v 49.003 		10.998 		-9.003
v 30.998 		10.998 		-9.003
v 9.003 		-30.998 		5
v 9.003 		-49.003 		5
v 9.003 		-10.998 		5
v 9.003 		-29.003 		5
v 9.003 		-9.003 		5
v 55 		-55 		-15
# 216 vertices

g group_0_15277357

usemtl color_15277357
s 0

f 6 	39 	2
f 15 	12 	14
f 3 	119 	7
f 15 	16 	12
f 10 	17 	18
f 11 	33 	149
f 18 	11 	110
f 79 	25 	14
f 15 	14 	42
f 1 	130 	19
f 20 	19 	130
f 22 	23 	25
f 22 	25 	27
f 26 	54 	15
f 29 	30 	31
f 29 	31 	34
f 33 	11 	32
f 13 	32 	11
f 35 	36 	37
f 35 	37 	38
f 24 	26 	15
f 24 	149 	33
f 21 	10 	28
f 17 	10 	21
f 10 	1 	28
f 39 	40 	41
f 39 	41 	42
f 17 	43 	13
f 41 	40 	37
f 41 	37 	36
f 36 	35 	42
f 36 	42 	41
f 43 	55 	32
f 46 	43 	17
f 13 	43 	32
f 49 	48 	45
f 49 	45 	44
f 186 	15 	54
f 50 	52 	53
f 50 	53 	51
f 62 	55 	43
f 48 	202 	45
f 54 	26 	55
f 26 	32 	55
f 54 	60 	61
f 59 	58 	57
f 59 	57 	56
f 63 	62 	61
f 63 	61 	60
f 65 	64 	205
f 68 	69 	70
f 68 	70 	71
f 72 	73 	74
f 72 	74 	75
f 40 	39 	38
f 40 	38 	37
f 74 	73 	70
f 74 	70 	69
f 69 	68 	75
f 69 	75 	74
f 73 	72 	71
f 73 	71 	70
f 139 	3 	78
f 84 	85 	14
f 80 	139 	78
f 87 	76 	86
f 77 	86 	76
f 78 	3 	7
f 78 	7 	80
f 79 	14 	85
f 82 	52 	87
f 91 	90 	89
f 91 	89 	88
f 23 	31 	42
f 20 	156 	93
f 95 	68 	186
f 25 	81 	30
f 93 	156 	92
f 92 	19 	20
f 92 	20 	93
f 23 	14 	25
f 81 	25 	79
f 97 	82 	96
f 83 	96 	82
f 84 	123 	81
f 94 	62 	97
f 95 	186 	94
f 102 	196 	101
f 96 	75 	95
f 83 	75 	96
f 102 	101 	100
f 102 	100 	99
f 31 	39 	42
f 111 	15 	35
f 42 	14 	23
f 98 	21 	28
f 98 	28 	103
f 100 	101 	179
f 6 	110 	38
f 6 	38 	39
f 31 	2 	39
f 51 	43 	104
f 46 	50 	108
f 35 	110 	111
f 108 	50 	51
f 108 	51 	104
f 109 	107 	146
f 104 	43 	46
f 104 	46 	108
f 105 	15 	111
f 106 	11 	149
f 110 	11 	106
f 35 	38 	110
f 6 	18 	110
f 113 	24 	15
f 112 	113 	15
f 60 	54 	114
f 115 	116 	117
f 115 	117 	118
f 119 	120 	121
f 119 	121 	123
f 62 	63 	122
f 62 	122 	55
f 121 	120 	117
f 121 	117 	116
f 60 	114 	63
f 122 	63 	114
f 114 	54 	55
f 114 	55 	122
f 116 	115 	123
f 116 	123 	121
f 120 	119 	118
f 120 	118 	117
f 119 	123 	14
f 127 	128 	129
f 127 	129 	130
f 131 	132 	133
f 131 	133 	134
f 195 	135 	125
f 66 	195 	126
f 125 	126 	195
f 133 	132 	129
f 133 	129 	128
f 136 	124 	135
f 128 	127 	134
f 128 	134 	133
f 115 	134 	30
f 30 	81 	115
f 123 	115 	81
f 77 	185 	136
f 132 	131 	130
f 132 	130 	129
f 3 	118 	119
f 84 	14 	123
f 6 	137 	138
f 6 	138 	10
f 135 	124 	125
f 1 	2 	130
f 127 	130 	2
f 1 	140 	141
f 1 	141 	2
f 66 	201 	45
f 134 	115 	131
f 118 	131 	115
f 141 	140 	138
f 141 	138 	137
f 80 	142 	139
f 137 	6 	2
f 137 	2 	141
f 127 	31 	134
f 2 	31 	127
f 31 	30 	134
f 140 	1 	10
f 140 	10 	138
f 3 	20 	131
f 118 	3 	131
f 130 	131 	20
f 11 	143 	144
f 11 	144 	13
f 76 	145 	146
f 76 	146 	77
f 17 	147 	148
f 17 	148 	18
f 109 	146 	145
f 10 	18 	6
f 150 	105 	149
f 148 	147 	144
f 148 	144 	143
f 143 	11 	18
f 143 	18 	148
f 112 	15 	150
f 42 	35 	15
f 150 	15 	105
f 107 	77 	146
f 147 	17 	13
f 147 	13 	144
f 149 	24 	113
f 149 	105 	106
f 82 	152 	153
f 82 	153 	83
f 86 	154 	155
f 86 	155 	87
f 155 	154 	153
f 155 	153 	152
f 156 	151 	92
f 152 	82 	87
f 152 	87 	155
f 24 	157 	158
f 24 	158 	26
f 154 	86 	83
f 154 	83 	153
f 32 	159 	160
f 32 	160 	33
f 160 	159 	158
f 160 	158 	157
f 177 	8 	178
f 157 	24 	33
f 157 	33 	160
f 187 	103 	161
f 159 	32 	26
f 159 	26 	158
f 9 	5 	4
f 5 	9 	8
f 94 	162 	163
f 94 	163 	95
f 96 	166 	167
f 96 	167 	97
f 105 	168 	169
f 105 	169 	106
f 167 	166 	163
f 167 	163 	162
f 110 	170 	171
f 110 	171 	111
f 162 	94 	97
f 162 	97 	167
f 171 	170 	169
f 171 	169 	168
f 166 	96 	95
f 166 	95 	163
f 168 	105 	111
f 168 	111 	171
f 46 	21 	52
f 172 	52 	21
f 170 	110 	106
f 170 	106 	169
f 8 	9 	178
f 124 	56 	57
f 124 	57 	125
f 62 	43 	53
f 9 	16 	178
f 17 	21 	46
f 186 	16 	15
f 59 	56 	124
f 112 	173 	174
f 112 	174 	113
f 82 	53 	52
f 52 	172 	76
f 76 	87 	52
f 149 	175 	176
f 149 	176 	150
f 58 	126 	125
f 58 	125 	57
f 61 	94 	186
f 176 	175 	174
f 176 	174 	173
f 135 	64 	65
f 135 	65 	136
f 54 	61 	186
f 173 	112 	150
f 173 	150 	176
f 136 	65 	205
f 175 	149 	113
f 175 	113 	174
f 62 	94 	61
f 53 	82 	62
f 82 	97 	62
f 79 	180 	181
f 79 	181 	81
f 84 	183 	184
f 84 	184 	85
f 124 	185 	179
f 184 	183 	181
f 184 	181 	180
f 192 	179 	200
f 180 	79 	85
f 180 	85 	184
f 183 	84 	81
f 183 	81 	181
f 23 	22 	34
f 23 	34 	31
f 185 	200 	179
f 124 	136 	185
f 182 	186 	195
f 30 	29 	27
f 30 	27 	25
f 100 	179 	192
f 27 	29 	34
f 27 	34 	22
f 198 	190 	186
f 194 	198 	186
f 187 	172 	98
f 21 	98 	172
f 109 	200 	107
f 185 	107 	200
f 103 	187 	98
f 12 	9 	4
f 77 	107 	185
f 12 	16 	9
f 43 	51 	53
f 182 	16 	186
f 52 	50 	46
f 191 	189 	182
f 178 	182 	189
f 86 	77 	188
f 136 	188 	77
f 135 	195 	190
f 195 	186 	190
f 197 	47 	196
f 67 	196 	47
f 182 	195 	191
f 86 	188 	199
f 190 	199 	188
f 193 	83 	199
f 75 	83 	193
f 86 	199 	83
f 192 	214 	197
f 214 	47 	197
f 198 	199 	190
f 71 	186 	68
f 196 	204 	179
f 67 	201 	196
f 201 	204 	196
f 193 	72 	75
f 75 	68 	95
f 71 	72 	186
f 194 	186 	72
f 193 	194 	72
f 76 	172 	200
f 189 	4 	5
f 126 	204 	66
f 164 	165 	195
f 14 	12 	195
f 201 	66 	204
f 164 	203 	201
f 67 	164 	201
f 47 	88 	89
f 47 	89 	67
f 202 	195 	66
f 202 	203 	195
f 164 	90 	91
f 164 	91 	165
f 188 	205 	206
f 188 	206 	190
f 205 	64 	206
f 165 	91 	47
f 88 	47 	91
f 124 	179 	204
f 136 	205 	188
f 64 	135 	206
f 190 	206 	135
f 90 	164 	67
f 90 	67 	89
f 193 	207 	208
f 193 	208 	194
f 5 	216 	189
f 198 	209 	210
f 198 	210 	199
f 100 	192 	99
f 210 	209 	208
f 210 	208 	207
f 207 	193 	199
f 207 	199 	210
f 209 	198 	194
f 209 	194 	208
f 196 	102 	197
f 197 	102 	192
f 99 	192 	102
f 16 	182 	178
f 44 	45 	201
f 196 	179 	101
f 202 	48 	49
f 202 	49 	203
f 203 	49 	201
f 44 	201 	49
f 200 	109 	145
f 200 	145 	76
f 66 	45 	202
f 7 	119 	14
f 14 	195 	212
f 59 	204 	58
f 126 	58 	204
f 47 	214 	211
f 3 	211 	214
f 204 	59 	124
f 7 	14 	212
f 47 	211 	212
f 165 	47 	212
f 203 	164 	195
f 165 	212 	195
f 20 	3 	214
f 192 	215 	213
f 192 	213 	214
f 192 	200 	215
f 12 	4 	191
f 189 	191 	4
f 191 	195 	12
f 3 	139 	211
f 80 	7 	142
f 212 	142 	7
f 142 	212 	211
f 142 	211 	139
f 19 	151 	213
f 20 	214 	156
f 213 	151 	214
f 156 	214 	151
f 1 	19 	28
f 215 	103 	28
f 213 	215 	19
f 28 	19 	215
f 215 	200 	172
f 151 	19 	92
f 161 	103 	215
f 172 	187 	215
f 161 	215 	187
f 178 	216 	177
f 189 	216 	178
f 216 	5 	177
f 8 	177 	5
# 428 faces

 #end of obj_0

